# xmcd
#
# Track frame offsets:
#	150
#	917
#	36490
#	60813
#	76661
#	107064
#	117546
#	147045
#	177717
#	204282
#	231018
#	256043
#	281531
#	313435
#	332545
#
# Disc length: 4437 seconds
#
# Revision: 3
# Processed by: cddbd v1.5.2PL0 Copyright (c) Steve Scherf et al.
# Submitted via: audiograbber 1.83.01
#
DISCID=c311530f
DTITLE=Ingrid Noll - Selige Witwen CD 4
DYEAR=2002
DGENRE=Hörbuch
TTITLE0=46
TTITLE1=47
TTITLE2=48
TTITLE3=49
TTITLE4=50
TTITLE5=51
TTITLE6=52
TTITLE7=53
TTITLE8=54
TTITLE9=55
TTITLE10=56
TTITLE11=57
TTITLE12=58
TTITLE13=59
TTITLE14=60
EXTD=
EXTT0=
EXTT1=
EXTT2=
EXTT3=
EXTT4=
EXTT5=
EXTT6=
EXTT7=
EXTT8=
EXTT9=
EXTT10=
EXTT11=
EXTT12=
EXTT13=
EXTT14=
PLAYORDER=
